<svg width="198" height="28" viewBox="0 0 198 28" fill="none" xmlns="http://www.w3.org/2000/svg">
<path d="M0 20.5562V18.3189H12.4914V20.4667C12.4914 21.8092 13.1178 22.5251 14.1918 22.5251C15.2657 22.5251 15.8474 21.8986 15.8474 20.7352V19.6613C15.8474 18.3189 15.3552 17.6029 13.8338 17.2449L5.32837 15.2313C1.29767 14.2882 0 12.2263 0 7.65868V7.16646C0 2.15131 2.46454 0.0034421 8.86685 0.0034421H19.2551C26.1496 0.0034421 28.122 1.5696 28.122 6.98747V8.28514H15.6306V7.03221C15.6306 5.73454 15.0489 5.01858 13.8854 5.01858C12.8562 5.01858 12.2745 5.64505 12.2745 6.71898V6.94272C12.2745 8.24039 12.7668 8.9116 14.3329 9.26958L22.797 11.2832C26.8277 12.2229 28.1254 14.2847 28.1254 18.9384V20.1466C28.1254 25.4302 25.7091 27.5334 19.2586 27.5334H8.8703C1.97577 27.5334 0.0034421 25.9672 0.0034421 20.5493L0 20.5562Z" fill="#143333"/>
<path d="M29.9119 8.0614C29.9119 1.61435 31.7018 0.0034421 38.7787 0.0034421H49.5697C56.6432 0.0034421 58.4366 1.61435 58.4366 8.0614V19.4789C58.4366 25.9259 56.6467 27.5368 49.5697 27.5368H38.7787C31.7052 27.5368 29.9119 25.9259 29.9119 19.4789V8.0614ZM45.897 7.74817C45.897 6.22676 45.3153 5.46606 44.1966 5.46606C42.9884 5.46606 42.4514 6.22676 42.4514 7.74817V19.7473C42.4514 21.2687 43.0332 22.0742 44.1966 22.0742C45.36 22.0742 45.897 21.2687 45.897 19.7473V7.74817Z" fill="#143333"/>
<path d="M73.0758 0.450915V5.37656C74.0155 1.52485 76.3458 0.0034421 80.6863 0.0034421H81.447C86.5964 0.0034421 88.4758 1.25637 88.9232 5.5108H89.0127C89.9524 1.61435 92.3275 0.0034421 96.668 0.0034421H97.4287C103.518 0.0034421 105.084 1.74859 105.084 8.0614V27.0893H92.5478V8.91504C92.5478 7.34889 91.9213 6.63293 90.8026 6.63293C89.684 6.63293 89.0575 7.34889 89.0575 8.91504V27.0928H76.5214L76.5661 8.91504C76.5661 7.34889 75.9396 6.63293 74.821 6.63293C73.7023 6.63293 73.0758 7.34889 73.0758 8.91504V27.0928H60.5397V0.450915H73.0758Z" fill="#143333"/>
<path d="M135.643 18.3602C135.643 22.1671 135.867 25.031 136.359 27.0893H123.599C123.286 25.6574 123.152 24.6282 123.152 22.7007H122.928C121.988 26.1496 119.747 27.5368 116.033 27.5368H114.378C109.228 27.5368 106.946 24.9415 106.946 19.1622C106.946 13.0731 109.318 10.8323 115.049 10.8323H120.735C122.57 10.8323 123.33 10.0716 123.33 8.2817V7.07352C123.33 5.7311 122.838 5.14938 121.72 5.14938C120.601 5.14938 120.064 5.77585 120.064 7.342V8.95291H107.796V6.93928C107.796 1.87939 109.944 0 116.167 0H125.527C133.406 0 135.646 1.74515 135.646 8.82211V18.3602H135.643ZM123.103 15.4068C122.835 15.8096 121.806 16.2123 120.911 16.436C119.434 16.8388 118.942 17.5547 118.942 19.1656C118.942 20.7765 119.479 21.6715 120.597 21.6715H120.776C122.119 21.6715 123.103 20.4185 123.103 18.491V15.4V15.4068Z" fill="#143333"/>
<path d="M150.747 0.450915V5.37656C151.687 1.52485 154.013 0.0034421 158.357 0.0034421H159.118C165.162 0.0034421 166.728 1.74859 166.728 8.0614V27.0893H154.192V8.91504C154.237 7.34889 153.611 6.63293 152.492 6.63293C151.373 6.63293 150.747 7.34889 150.747 8.91504V27.0928H138.211V0.450915H150.747Z" fill="#143333"/>
<path d="M197.284 18.3602C197.284 22.1671 197.508 25.031 198 27.0893H185.24C184.927 25.6574 184.793 24.6282 184.793 22.7007H184.569C183.629 26.1496 181.388 27.5368 177.674 27.5368H176.019C170.869 27.5368 168.587 24.9415 168.587 19.1622C168.587 13.0731 170.959 10.8323 176.693 10.8323H182.38C184.214 10.8323 184.975 10.0716 184.975 8.2817V7.07352C184.975 5.7311 184.483 5.14938 183.364 5.14938C182.245 5.14938 181.709 5.77585 181.709 7.342V8.95291H169.441V6.93928C169.441 1.87939 171.589 0 177.816 0H187.175C195.054 0 197.294 1.74515 197.294 8.82211V18.3602H197.284ZM184.748 15.4068C184.479 15.8096 183.45 16.2123 182.555 16.436C181.079 16.8388 180.586 17.5547 180.586 19.1656C180.586 20.7765 181.123 21.6715 182.242 21.6715H182.421C183.763 21.6715 184.748 20.4185 184.748 18.491V15.4V15.4068Z" fill="#143333"/>
</svg>
