<svg width="197" height="28" viewBox="0 0 197 28" fill="none" xmlns="http://www.w3.org/2000/svg">
<path d="M0 20.4524V18.2263H12.4283V20.3634C12.4283 21.699 13.0516 22.4113 14.1201 22.4113C15.1886 22.4113 15.7674 21.7881 15.7674 20.6305V19.562C15.7674 18.2263 15.2777 17.514 13.7639 17.1578L5.30146 15.1544C1.29112 14.216 0 12.1646 0 7.62V7.13026C0 2.14045 2.4521 0.00342472 8.82207 0.00342472H19.1579C26.0176 0.00342472 27.9799 1.56167 27.9799 6.95218V8.24329H15.5516V6.9967C15.5516 5.70558 14.9729 4.99324 13.8153 4.99324C12.7913 4.99324 12.2125 5.61654 12.2125 6.68505V6.90765C12.2125 8.19877 12.7023 8.86659 14.2605 9.22276L22.6819 11.2262C26.6922 12.1612 27.9834 14.2126 27.9834 18.8428V20.0449C27.9834 25.3018 25.5792 27.3943 19.1613 27.3943H8.8255C1.96579 27.3943 0.00342472 25.8361 0.00342472 20.4456L0 20.4524Z" fill="white"/>
<path d="M29.7608 8.02069C29.7608 1.60619 31.5416 0.00342472 38.5829 0.00342472H49.3194C56.3571 0.00342472 58.1414 1.60619 58.1414 8.02069V19.3805C58.1414 25.795 56.3606 27.3977 49.3194 27.3977H38.5829C31.5451 27.3977 29.7608 25.795 29.7608 19.3805V8.02069ZM45.6652 7.70904C45.6652 6.19531 45.0864 5.43845 43.9734 5.43845C42.7713 5.43845 42.237 6.19531 42.237 7.70904V19.6476C42.237 21.1613 42.8158 21.9627 43.9734 21.9627C45.1309 21.9627 45.6652 21.1613 45.6652 19.6476V7.70904Z" fill="white"/>
<path d="M72.7067 0.448638V5.34941C73.6417 1.51715 75.9602 0.00342472 80.2788 0.00342472H81.0357C86.159 0.00342472 88.0289 1.25002 88.4741 5.48297H88.5632C89.4981 1.60619 91.8612 0.00342472 96.1798 0.00342472H96.9366C102.995 0.00342472 104.553 1.73976 104.553 8.02069V26.9525H92.0804V8.87002C92.0804 7.31177 91.4571 6.59943 90.344 6.59943C89.231 6.59943 88.6077 7.31177 88.6077 8.87002V26.9559H76.1349L76.1794 8.87002C76.1794 7.31177 75.5561 6.59943 74.4431 6.59943C73.33 6.59943 72.7067 7.31177 72.7067 8.87002V26.9559H60.2339V0.448638H72.7067Z" fill="white"/>
<path d="M134.958 18.2674C134.958 22.0552 135.18 24.9045 135.67 26.9525H122.975C122.663 25.5278 122.53 24.5039 122.53 22.586H122.307C121.372 26.0176 119.142 27.3977 115.447 27.3977H113.8C108.677 27.3977 106.406 24.8155 106.406 19.0654C106.406 13.0071 108.766 10.7776 114.468 10.7776H120.125C121.951 10.7776 122.708 10.0207 122.708 8.23987V7.03779C122.708 5.70215 122.218 5.12338 121.105 5.12338C119.992 5.12338 119.458 5.74668 119.458 7.30492V8.90769H107.252V6.90423C107.252 1.8699 109.389 0 115.581 0H124.893C132.732 0 134.961 1.73633 134.961 8.77755V18.2674H134.958ZM122.482 15.329C122.214 15.7297 121.19 16.1304 120.3 16.353C118.831 16.7537 118.341 17.4661 118.341 19.0688C118.341 20.6716 118.875 21.562 119.988 21.562H120.166C121.502 21.562 122.482 20.3154 122.482 18.3976V15.3222V15.329Z" fill="white"/>
<path d="M149.985 0.448638V5.34941C150.92 1.51715 153.236 0.00342472 157.558 0.00342472H158.314C164.328 0.00342472 165.886 1.73976 165.886 8.02069V26.9525H153.414V8.87002C153.458 7.31177 152.835 6.59943 151.722 6.59943C150.609 6.59943 149.985 7.31177 149.985 8.87002V26.9559H137.513V0.448638H149.985Z" fill="white"/>
<path d="M196.288 18.2674C196.288 22.0552 196.51 24.9045 197 26.9525H184.305C183.993 25.5278 183.859 24.5039 183.859 22.586H183.637C182.702 26.0176 180.472 27.3977 176.777 27.3977H175.13C170.006 27.3977 167.736 24.8155 167.736 19.0654C167.736 13.0071 170.095 10.7776 175.801 10.7776H181.459C183.284 10.7776 184.041 10.0207 184.041 8.23987V7.03779C184.041 5.70215 183.551 5.12338 182.438 5.12338C181.325 5.12338 180.791 5.74668 180.791 7.30492V8.90769H168.585V6.90423C168.585 1.8699 170.722 0 176.917 0H186.229C194.068 0 196.298 1.73633 196.298 8.77755V18.2674H196.288ZM183.815 15.329C183.548 15.7297 182.524 16.1304 181.633 16.353C180.164 16.7537 179.674 17.4661 179.674 19.0688C179.674 20.6716 180.209 21.562 181.322 21.562H181.5C182.835 21.562 183.815 20.3154 183.815 18.3976V15.3222V15.329Z" fill="white"/>
</svg>
